<?xml version="1.0" encoding="UTF-8"?>
<svg version="1.1" xmlns="http://www.w3.org/2000/svg" width="128" height="128">
<path d="M0 0 C9.02802126 7.55469835 14.54978664 16.24827102 16 28 C16.99 27.67 17.98 27.34 19 27 C28.91775273 26.29449639 36.29615082 26.84329544 44.1875 33.0625 C50.74716732 39.28577412 53.27916543 45.47189745 53.625 54.5 C53.27807097 63.55667374 50.74952649 69.73828358 44.125 75.9375 C38.54717213 80.68682206 32.99148719 82.37234237 25.77050781 82.40405273 C24.74209274 82.41434761 24.74209274 82.41434761 23.69290161 82.42485046 C21.44609331 82.44301881 19.19999039 82.4392939 16.953125 82.43359375 C15.37522152 82.43816196 13.79732003 82.44346942 12.21942139 82.44947815 C8.91768294 82.45839094 5.61618657 82.45600907 2.31445312 82.44604492 C-1.88946187 82.43458652 -6.09253292 82.45472729 -10.29633713 82.48396206 C-13.5548828 82.50243193 -16.81323053 82.50200983 -20.07181549 82.49632454 C-21.62016225 82.49617248 -23.16852343 82.50211987 -24.71681976 82.51461601 C-40.1126977 82.6213391 -51.53768052 78.90857105 -63.125 68.5 C-73.1178008 58.1667631 -75.49960104 45.6374796 -75.26953125 31.84375 C-74.76386916 18.97053971 -68.38362162 8.86792467 -59.1875 0.125 C-42.00649351 -13.92299942 -17.21039957 -13.39184217 0 0 Z M-57.20703125 12.7421875 C-64.84496382 22.3603248 -65.62842033 32.22293759 -65 44 C-64.44574264 47.02493001 -63.53038135 49.34502024 -62 52 C-61.39671875 53.10214844 -61.39671875 53.10214844 -60.78125 54.2265625 C-55.89747751 62.33905125 -48.35711696 68.66290868 -39.24261475 71.55825806 C-36.28219845 72.14138989 -33.4483923 72.15984198 -30.43066406 72.19287109 C-29.45419922 72.20513733 -29.45419922 72.20513733 -28.45800781 72.21765137 C-26.31055598 72.24239684 -24.16316981 72.25899426 -22.015625 72.2734375 C-21.27906425 72.27876118 -20.54250351 72.28408485 -19.78362274 72.28956985 C-15.88407942 72.31625569 -11.98456758 72.33564417 -8.08496094 72.35009766 C-4.86852514 72.36342633 -1.65272535 72.39126438 1.56347656 72.43212891 C5.45852927 72.48160784 9.35300617 72.50623681 13.24835968 72.51332474 C14.72666976 72.52001065 16.20496832 72.53516313 17.68309784 72.55921555 C29.28664659 72.77893205 29.28664659 72.77893205 39 67 C43.00365253 62.35868201 43.69532842 57.78580301 43.4453125 51.71875 C42.6052742 46.5900951 40.28727453 43.0971634 36.49609375 39.62109375 C31.51740187 36.17799841 25.84187338 36.20957545 20 37 C17.23558031 38.40759341 17.23558031 38.40759341 15 40 C11.75 40.25 11.75 40.25 9 40 C7.34930804 38.34930804 7.43920691 36.20092956 7.04956055 33.984375 C4.91532478 21.9186753 0.93627115 13.08973409 -9.1875 5.75 C-25.38391874 -4.44774513 -44.35516969 -0.75098452 -57.20703125 12.7421875 Z " fill="#0184C6" transform="translate(75,46)"/>
<path d="M0 0 C5.42334028 3.30521167 10.93134756 8.11961205 13.12109375 14.234375 C14.80513099 22.6396582 14.54199912 30.82619025 10.17578125 38.31640625 C5.79270922 44.07913775 -0.41411101 47.78817186 -7.4375 49.4375 C-15.55764829 50.21084746 -22.36284855 48.44030118 -28.75 43.25 C-34.47531314 37.86683705 -37.08238039 31.55688744 -37.75 23.8125 C-37.65148623 17.21207757 -34.81573837 11.58593041 -31.3125 6.125 C-22.8714016 -1.76559198 -10.96723395 -4.89798798 0 0 Z M-25.421875 15.70703125 C-27.66167348 19.52330327 -27.87907684 23.30708542 -26.9921875 27.5859375 C-25.50092593 32.19684971 -23.68146272 34.87138301 -19.4375 37.4375 C-14.76757666 39.61679756 -10.33544311 40.17959895 -5.4375 38.4375 C-1.40987184 35.70820605 2.00059967 33.12320099 3.5625 28.4375 C4.08103818 23.4986364 4.11449525 19.58395166 1.9375 15.0625 C-1.3105724 11.47252525 -3.90662492 8.79905358 -8.87109375 8.08984375 C-16.37271806 7.83347323 -20.68696836 9.63855913 -25.421875 15.70703125 Z " fill="#0183C7" transform="translate(114.4375,1.5625)"/>
</svg>
