<svg clip-rule="evenodd" fill-rule="evenodd" stroke-linejoin="round" stroke-miterlimit="2" viewBox="0 0 24 24" xmlns="http://www.w3.org/2000/svg">
  <!-- 定义渐变色 -->
  <defs>
    <linearGradient id="glassGradient" x1="0%" y1="0%" x2="100%" y2="100%">
      <stop offset="0%" style="stop-color:#667eea;stop-opacity:1" />
      <stop offset="100%" style="stop-color:#764ba2;stop-opacity:1" />
    </linearGradient>
  </defs>

  <!-- 放大镜镜圈和把手 -->
  <path d="m15.985 17.031c-1.479 1.238-3.384 1.985-5.461 1.985-4.697 0-8.509-3.812-8.509-8.508s3.812-8.508 8.509-8.508c4.695 0 8.508 3.812 8.508 8.508 0 2.078-.747 3.984-1.985 5.461l4.749 4.75c.146.146.219.338.219.531 0 .587-.537.75-.75.75-.192 0-.384-.073-.531-.22z" 
        fill="url(#glassGradient)" />
  
  <!-- 镜圈内部的白色背景 -->
  <path d="m10.524 3.501c-3.868 0-7.007 3.14-7.007 7.007s3.139 7.007 7.007 7.007c3.866 0 7.007-3.14 7.007-7.007s-3.141-7.007-7.007-7.007z" 
        fill="#ffffff" />

  <!-- 内部的三条横线，各一种颜色 -->
  <!-- 第一条横线 -->
  <path d="m11.265 12h-4.5c-.414 0-.75.336-.75.75s.336.75.75.75h4.5c.414 0 .75-.336.75-.75s-.336-.75-.75-.75z" 
        fill="#dc3545" /> <!-- 状态红 -->
  
  <!-- 第二条横线 -->
  <path d="m14.265 9.5h-7.5c-.414 0-.75.336-.75.75s.336.75.75.75h7.5c.414 0 .75-.336.75-.75s-.336-.75-.75-.75z" 
        fill="#ffc107" /> <!-- 警告黄 -->
  
  <!-- 第三条横线 -->
  <path d="m14.265 7h-7.5c-.414 0-.75.336-.75.75s.336.75.75.75h7.5c.414 0 .75-.336.75-.75s-.336-.75-.75-.75z" 
        fill="#28a745" /> <!-- 成功绿 -->
</svg>